<svg width="48" height="52" fill="none" xmlns="http://www.w3.org/2000/svg">
  <g filter="url(#a)">
    <path d="M23 3.577a2 2 0 0 1 2 0l17.053 9.846a2 2 0 0 1 1 1.732v19.69a2 2 0 0 1-1 1.732L25 46.423a2 2 0 0 1-2 0L5.947 36.577a2 2 0 0 1-1-1.732v-19.69a2 2 0 0 1 1-1.732L23 3.577Z" fill="#F8F9FA"/>
  </g>
  <path d="M12 27.25c0-2.997 2.43-5.447 5.429-5.447 2.998 0 5.428 2.45 5.428 5.448 0 0-1.416 1.98-5.428 1.98-4.013 0-5.429-1.98-5.429-1.98Z" fill="#2EBCFA"/>
  <circle cx="17.34" cy="18" r="2.857" fill="#2EBCFA"/>
  <path d="M25.143 27.25c0-2.997 2.43-5.447 5.429-5.447 2.998 0 5.428 2.45 5.428 5.448 0 0-1.416 1.98-5.428 1.98-4.013 0-5.429-1.98-5.429-1.98Z" fill="#2EBCFA"/>
  <circle cx="30.483" cy="18" r="2.857" fill="#2EBCFA"/>
  <path d="M16 32.819a7.962 7.962 0 0 1 7.962-7.962h.648a7.962 7.962 0 0 1 7.961 7.962s-2.161 2.895-8.285 2.895C18.16 35.714 16 32.82 16 32.82Z" fill="#144496"/>
  <circle cx="24" cy="18.571" r="4.571" fill="#144496"/>
  <defs>
    <filter id="a" x=".947" y=".31" width="46.105" height="51.381" filterUnits="userSpaceOnUse" color-interpolation-filters="sRGB">
      <feFlood flood-opacity="0" result="BackgroundImageFix"/>
      <feColorMatrix in="SourceAlpha" values="0 0 0 0 0 0 0 0 0 0 0 0 0 0 0 0 0 0 127 0" result="hardAlpha"/>
      <feOffset dy="1"/>
      <feGaussianBlur stdDeviation="2"/>
      <feComposite in2="hardAlpha" operator="out"/>
      <feColorMatrix values="0 0 0 0 0 0 0 0 0 0 0 0 0 0 0 0 0 0 0.08 0"/>
      <feBlend in2="BackgroundImageFix" result="effect1_dropShadow_4162_37988"/>
      <feColorMatrix in="SourceAlpha" values="0 0 0 0 0 0 0 0 0 0 0 0 0 0 0 0 0 0 127 0" result="hardAlpha"/>
      <feOffset dy="1"/>
      <feGaussianBlur stdDeviation=".5"/>
      <feComposite in2="hardAlpha" operator="out"/>
      <feColorMatrix values="0 0 0 0 0 0 0 0 0 0 0 0 0 0 0 0 0 0 0.06 0"/>
      <feBlend in2="effect1_dropShadow_4162_37988" result="effect2_dropShadow_4162_37988"/>
      <feBlend in="SourceGraphic" in2="effect2_dropShadow_4162_37988" result="shape"/>
    </filter>
  </defs>
</svg>
