<svg width="48" height="52" fill="none" xmlns="http://www.w3.org/2000/svg">
  <g filter="url(#a)">
    <path d="M23 3.577a2 2 0 0 1 2 0l17.053 9.846a2 2 0 0 1 1 1.732v19.69a2 2 0 0 1-1 1.732L25 46.423a2 2 0 0 1-2 0L5.947 36.577a2 2 0 0 1-1-1.732v-19.69a2 2 0 0 1 1-1.732L23 3.577Z" fill="#F8F9FA"/>
  </g>
  <path d="M21.466 32.35c-1.648 2.186-4.841 2.558-4.841 2.558s-.523-3.173 1.125-5.36c1.647-2.186 4.841-2.558 4.841-2.558s.523 3.173-1.125 5.36Z" fill="#F78613"/>
  <path fill-rule="evenodd" clip-rule="evenodd" d="M16.456 21.237c1.681-2.23 8.747-3.934 8.747-3.934l-3.045 4.04-3.044 4.04s-4.34-1.914-2.658-4.146Zm8.747-3.933 1.616 1.217-6.088 8.08-1.617-1.217 6.09-8.08ZM30.126 30.914c1.585-2.3.966-9.542.966-9.542v.001l-1.666-1.148-5.74 8.332 1.667 1.148c.039.042 3.198 3.496 4.773 1.21Z" fill="#144496"/>
  <path fill-rule="evenodd" clip-rule="evenodd" d="M23.203 30.22c2.032-.752 4.453-2.05 6.108-4.247 3.362-4.462 2.29-10.941 2.29-10.941s-6.523.755-9.885 5.218c-1.655 2.196-2.236 4.88-2.4 7.041 1.963-.943 3.884-1.11 3.884-1.11s.37 1.893.003 4.039Z" fill="#2EBCFA"/>
  <circle cx="27.655" cy="20.215" r="2.226" fill="#144496"/>
  <defs>
    <filter id="a" x=".947" y=".31" width="46.105" height="51.381" filterUnits="userSpaceOnUse" color-interpolation-filters="sRGB">
      <feFlood flood-opacity="0" result="BackgroundImageFix"/>
      <feColorMatrix in="SourceAlpha" values="0 0 0 0 0 0 0 0 0 0 0 0 0 0 0 0 0 0 127 0" result="hardAlpha"/>
      <feOffset dy="1"/>
      <feGaussianBlur stdDeviation="2"/>
      <feComposite in2="hardAlpha" operator="out"/>
      <feColorMatrix values="0 0 0 0 0 0 0 0 0 0 0 0 0 0 0 0 0 0 0.08 0"/>
      <feBlend in2="BackgroundImageFix" result="effect1_dropShadow_4162_38063"/>
      <feColorMatrix in="SourceAlpha" values="0 0 0 0 0 0 0 0 0 0 0 0 0 0 0 0 0 0 127 0" result="hardAlpha"/>
      <feOffset dy="1"/>
      <feGaussianBlur stdDeviation=".5"/>
      <feComposite in2="hardAlpha" operator="out"/>
      <feColorMatrix values="0 0 0 0 0 0 0 0 0 0 0 0 0 0 0 0 0 0 0.06 0"/>
      <feBlend in2="effect1_dropShadow_4162_38063" result="effect2_dropShadow_4162_38063"/>
      <feBlend in="SourceGraphic" in2="effect2_dropShadow_4162_38063" result="shape"/>
    </filter>
  </defs>
</svg>
