<svg width="48" height="52" viewBox="0 0 48 52" fill="none" xmlns="http://www.w3.org/2000/svg">
<g filter="url(#filter0_dd_4162_37990)">
<path d="M23 3.57735C23.6188 3.22009 24.3812 3.22008 25 3.57735L42.0526 13.4226C42.6714 13.7799 43.0526 14.4402 43.0526 15.1547V34.8453C43.0526 35.5598 42.6714 36.2201 42.0526 36.5774L25 46.4226C24.3812 46.7799 23.6188 46.7799 23 46.4226L5.94744 36.5774C5.32864 36.2201 4.94744 35.5598 4.94744 34.8453V15.1547C4.94744 14.4402 5.32864 13.7799 5.94744 13.4226L23 3.57735Z" fill="#F8F9FA"/>
</g>
<path fill-rule="evenodd" clip-rule="evenodd" d="M25.4348 15.623C24.6584 14.7923 23.3411 14.7923 22.5648 15.623L21.4773 16.7866C21.09 17.2009 20.5427 17.4276 19.9759 17.4085L18.3841 17.3547C17.2478 17.3163 16.3163 18.2478 16.3547 19.3841L16.4085 20.9759C16.4276 21.5427 16.2009 22.09 15.7866 22.4773L14.623 23.5648C13.7923 24.3411 13.7923 25.6584 14.623 26.4348L15.7866 27.5223C16.2009 27.9096 16.4276 28.4569 16.4085 29.0237L16.3547 30.6155C16.3163 31.7518 17.2478 32.6833 18.3841 32.6449L19.9759 32.5911C20.5427 32.5719 21.09 32.7987 21.4773 33.213L22.5648 34.3766C23.3411 35.2073 24.6584 35.2073 25.4348 34.3766L26.5223 33.213C26.9096 32.7987 27.4569 32.5719 28.0237 32.5911L29.6155 32.6449C30.7518 32.6833 31.6833 31.7518 31.6449 30.6155L31.5911 29.0237C31.5719 28.4569 31.7987 27.9096 32.213 27.5223L33.3766 26.4348C34.2073 25.6584 34.2073 24.3411 33.3766 23.5648L32.213 22.4773C31.7987 22.09 31.5719 21.5427 31.5911 20.9759L31.6449 19.3841C31.6833 18.2478 30.7518 17.3163 29.6155 17.3547L28.0237 17.4085C27.4569 17.4276 26.9096 17.2009 26.5223 16.7866L25.4348 15.623ZM23.9996 30.7142C27.1554 30.7142 29.7138 28.1558 29.7138 25C29.7138 21.8442 27.1554 19.2858 23.9996 19.2858C20.8437 19.2858 18.2854 21.8442 18.2854 25C18.2854 28.1558 20.8437 30.7142 23.9996 30.7142Z" fill="#1AD3BB"/>
<path fill-rule="evenodd" clip-rule="evenodd" d="M23.7791 23.7596L31.5496 15.9521L33.5792 17.9933C34.1396 18.557 34.1396 19.4709 33.5792 20.0345L24.7939 28.8626C24.2335 29.4263 23.3249 29.4263 22.7645 28.8626L18.3174 24.3961C18.4846 22.803 19.3064 21.4049 20.5089 20.4756L23.7791 23.7596Z" fill="#1A6F66"/>
<path fill-rule="evenodd" clip-rule="evenodd" d="M30.1095 17.3999L27.2344 20.2887C28.4723 21.1404 29.3579 22.4673 29.6277 24.0061L31.7668 21.8566C31.6424 21.5835 31.5808 21.2824 31.5911 20.9757L31.6449 19.3839C31.6776 18.4177 31.009 17.5996 30.1095 17.3999Z" fill="#1A6F66"/>
<defs>
<filter id="filter0_dd_4162_37990" x="0.947266" y="0.30957" width="46.1055" height="51.3809" filterUnits="userSpaceOnUse" color-interpolation-filters="sRGB">
<feFlood flood-opacity="0" result="BackgroundImageFix"/>
<feColorMatrix in="SourceAlpha" type="matrix" values="0 0 0 0 0 0 0 0 0 0 0 0 0 0 0 0 0 0 127 0" result="hardAlpha"/>
<feOffset dy="1"/>
<feGaussianBlur stdDeviation="2"/>
<feComposite in2="hardAlpha" operator="out"/>
<feColorMatrix type="matrix" values="0 0 0 0 0 0 0 0 0 0 0 0 0 0 0 0 0 0 0.08 0"/>
<feBlend mode="normal" in2="BackgroundImageFix" result="effect1_dropShadow_4162_37990"/>
<feColorMatrix in="SourceAlpha" type="matrix" values="0 0 0 0 0 0 0 0 0 0 0 0 0 0 0 0 0 0 127 0" result="hardAlpha"/>
<feOffset dy="1"/>
<feGaussianBlur stdDeviation="0.5"/>
<feComposite in2="hardAlpha" operator="out"/>
<feColorMatrix type="matrix" values="0 0 0 0 0 0 0 0 0 0 0 0 0 0 0 0 0 0 0.06 0"/>
<feBlend mode="normal" in2="effect1_dropShadow_4162_37990" result="effect2_dropShadow_4162_37990"/>
<feBlend mode="normal" in="SourceGraphic" in2="effect2_dropShadow_4162_37990" result="shape"/>
</filter>
</defs>
</svg>
